<mxfile host="app.diagrams.net" agent="Mozilla/5.0 (Windows NT 10.0; Win64; x64) AppleWebKit/537.36 (KHTML, like Gecko) Chrome/137.0.0.0 Safari/537.36" version="27.2.0">
  <diagram name="Page-1" id="MNdFGOSukloHxUidRG1X">
    <mxGraphModel dx="1245" dy="697" grid="1" gridSize="10" guides="1" tooltips="1" connect="1" arrows="1" fold="1" page="1" pageScale="1" pageWidth="850" pageHeight="1100" math="0" shadow="0">
      <root>
        <mxCell id="0" />
        <mxCell id="1" parent="0" />
        <mxCell id="RndPboonW-xRMH3MhXfd-1" value="DJELATNIK" style="shape=umlActor;verticalLabelPosition=bottom;verticalAlign=top;html=1;outlineConnect=0;" vertex="1" parent="1">
          <mxGeometry x="70" y="100" width="30" height="60" as="geometry" />
        </mxCell>
        <mxCell id="RndPboonW-xRMH3MhXfd-4" value="KUPAC" style="shape=umlActor;verticalLabelPosition=bottom;verticalAlign=top;html=1;outlineConnect=0;" vertex="1" parent="1">
          <mxGeometry x="60" y="390" width="30" height="60" as="geometry" />
        </mxCell>
        <mxCell id="RndPboonW-xRMH3MhXfd-5" value="ADMIN" style="shape=umlActor;verticalLabelPosition=bottom;verticalAlign=top;html=1;outlineConnect=0;" vertex="1" parent="1">
          <mxGeometry x="740" y="80" width="30" height="60" as="geometry" />
        </mxCell>
        <mxCell id="RndPboonW-xRMH3MhXfd-7" value="DOBAVLJAČ" style="shape=umlActor;verticalLabelPosition=bottom;verticalAlign=top;html=1;outlineConnect=0;" vertex="1" parent="1">
          <mxGeometry x="740" y="240" width="30" height="60" as="geometry" />
        </mxCell>
        <mxCell id="RndPboonW-xRMH3MhXfd-8" value="SUSTAV" style="shape=umlActor;verticalLabelPosition=bottom;verticalAlign=top;html=1;outlineConnect=0;" vertex="1" parent="1">
          <mxGeometry x="740" y="390" width="30" height="60" as="geometry" />
        </mxCell>
        <mxCell id="RndPboonW-xRMH3MhXfd-9" value="&lt;b&gt;&lt;font style=&quot;font-size: 14px;&quot;&gt;VOĆARSTVO&lt;/font&gt;&lt;/b&gt;" style="text;html=1;align=center;verticalAlign=middle;whiteSpace=wrap;rounded=0;" vertex="1" parent="1">
          <mxGeometry x="395" y="20" width="60" height="30" as="geometry" />
        </mxCell>
        <mxCell id="RndPboonW-xRMH3MhXfd-10" value="&lt;font style=&quot;font-size: 9px;&quot;&gt;PREUZIMA ROBU I PROVJERAVA KVALITETU&lt;/font&gt;" style="ellipse;whiteSpace=wrap;html=1;" vertex="1" parent="1">
          <mxGeometry x="150" y="50" width="90" height="50" as="geometry" />
        </mxCell>
        <mxCell id="RndPboonW-xRMH3MhXfd-13" value="&lt;font style=&quot;font-size: 9px;&quot;&gt;SAVJETOVANJE KUPACA&lt;/font&gt;" style="ellipse;whiteSpace=wrap;html=1;" vertex="1" parent="1">
          <mxGeometry x="190" y="105" width="90" height="50" as="geometry" />
        </mxCell>
        <mxCell id="RndPboonW-xRMH3MhXfd-14" value="&lt;font style=&quot;font-size: 9px;&quot;&gt;PAKIRANJE NARUDŽBI&lt;/font&gt;" style="ellipse;whiteSpace=wrap;html=1;" vertex="1" parent="1">
          <mxGeometry x="170" y="160" width="90" height="50" as="geometry" />
        </mxCell>
        <mxCell id="RndPboonW-xRMH3MhXfd-18" value="&lt;font size=&quot;1&quot;&gt;PRIJAVA&lt;/font&gt;" style="ellipse;whiteSpace=wrap;html=1;" vertex="1" parent="1">
          <mxGeometry x="110" y="320" width="90" height="50" as="geometry" />
        </mxCell>
        <mxCell id="RndPboonW-xRMH3MhXfd-19" value="&lt;font style=&quot;font-size: 9px;&quot;&gt;PREGLED VOĆA&lt;/font&gt;" style="ellipse;whiteSpace=wrap;html=1;" vertex="1" parent="1">
          <mxGeometry x="160" y="370" width="90" height="50" as="geometry" />
        </mxCell>
        <mxCell id="RndPboonW-xRMH3MhXfd-20" value="&lt;font style=&quot;font-size: 9px;&quot;&gt;KREIRANJE NARUDŽBE&lt;/font&gt;" style="ellipse;whiteSpace=wrap;html=1;" vertex="1" parent="1">
          <mxGeometry x="190" y="430" width="90" height="50" as="geometry" />
        </mxCell>
        <mxCell id="RndPboonW-xRMH3MhXfd-21" value="&lt;font style=&quot;font-size: 9px;&quot;&gt;PREGLED POVJESTI NARUDŽBA&lt;/font&gt;" style="ellipse;whiteSpace=wrap;html=1;" vertex="1" parent="1">
          <mxGeometry x="140" y="490" width="90" height="50" as="geometry" />
        </mxCell>
        <mxCell id="RndPboonW-xRMH3MhXfd-23" value="" style="endArrow=none;html=1;rounded=0;" edge="1" parent="1">
          <mxGeometry width="50" height="50" relative="1" as="geometry">
            <mxPoint x="110" y="140" as="sourcePoint" />
            <mxPoint x="160" y="90" as="targetPoint" />
          </mxGeometry>
        </mxCell>
        <mxCell id="RndPboonW-xRMH3MhXfd-25" value="" style="endArrow=none;html=1;rounded=0;" edge="1" parent="1" target="RndPboonW-xRMH3MhXfd-13">
          <mxGeometry width="50" height="50" relative="1" as="geometry">
            <mxPoint x="110" y="150" as="sourcePoint" />
            <mxPoint x="200" y="110" as="targetPoint" />
          </mxGeometry>
        </mxCell>
        <mxCell id="RndPboonW-xRMH3MhXfd-26" value="" style="endArrow=none;html=1;rounded=0;entryX=0;entryY=0.5;entryDx=0;entryDy=0;" edge="1" parent="1" target="RndPboonW-xRMH3MhXfd-14">
          <mxGeometry width="50" height="50" relative="1" as="geometry">
            <mxPoint x="110" y="160" as="sourcePoint" />
            <mxPoint x="180" y="160" as="targetPoint" />
          </mxGeometry>
        </mxCell>
        <mxCell id="RndPboonW-xRMH3MhXfd-27" value="" style="endArrow=none;html=1;rounded=0;" edge="1" parent="1">
          <mxGeometry width="50" height="50" relative="1" as="geometry">
            <mxPoint x="90" y="420" as="sourcePoint" />
            <mxPoint x="140" y="370" as="targetPoint" />
          </mxGeometry>
        </mxCell>
        <mxCell id="RndPboonW-xRMH3MhXfd-28" value="" style="endArrow=none;html=1;rounded=0;" edge="1" parent="1">
          <mxGeometry width="50" height="50" relative="1" as="geometry">
            <mxPoint x="90" y="430" as="sourcePoint" />
            <mxPoint x="160" y="400" as="targetPoint" />
          </mxGeometry>
        </mxCell>
        <mxCell id="RndPboonW-xRMH3MhXfd-29" value="" style="endArrow=none;html=1;rounded=0;" edge="1" parent="1">
          <mxGeometry width="50" height="50" relative="1" as="geometry">
            <mxPoint x="100" y="440" as="sourcePoint" />
            <mxPoint x="190" y="450" as="targetPoint" />
          </mxGeometry>
        </mxCell>
        <mxCell id="RndPboonW-xRMH3MhXfd-30" value="" style="endArrow=none;html=1;rounded=0;entryX=0;entryY=0;entryDx=0;entryDy=0;" edge="1" parent="1" target="RndPboonW-xRMH3MhXfd-21">
          <mxGeometry width="50" height="50" relative="1" as="geometry">
            <mxPoint x="100" y="450" as="sourcePoint" />
            <mxPoint x="190" y="460" as="targetPoint" />
          </mxGeometry>
        </mxCell>
        <mxCell id="RndPboonW-xRMH3MhXfd-33" value="&lt;font style=&quot;font-size: 9px;&quot;&gt;UPRAVLJANJE SUSTAVOM&lt;/font&gt;&lt;span style=&quot;color: rgba(0, 0, 0, 0); font-family: monospace; font-size: 0px; text-align: start; text-wrap-mode: nowrap;&quot;&gt;%3CmxGraphModel%3E%3Croot%3E%3CmxCell%20id%3D%220%22%2F%3E%3CmxCell%20id%3D%221%22%20parent%3D%220%22%2F%3E%3CmxCell%20id%3D%222%22%20value%3D%22%26lt%3Bfont%20style%3D%26quot%3Bfont-size%3A%209px%3B%26quot%3B%26gt%3BPAKIRANJE%20NARUD%C5%BDBI%26lt%3B%2Ffont%26gt%3B%22%20style%3D%22ellipse%3BwhiteSpace%3Dwrap%3Bhtml%3D1%3B%22%20vertex%3D%221%22%20parent%3D%221%22%3E%3CmxGeometry%20x%3D%22170%22%20y%3D%22160%22%20width%3D%2290%22%20height%3D%2250%22%20as%3D%22geometry%22%2F%3E%3C%2FmxCell%3E%3C%2Froot%3E%3C%2FmxGraphModel%3E&lt;/span&gt;" style="ellipse;whiteSpace=wrap;html=1;" vertex="1" parent="1">
          <mxGeometry x="590" y="55" width="90" height="50" as="geometry" />
        </mxCell>
        <mxCell id="RndPboonW-xRMH3MhXfd-34" value="&lt;font style=&quot;font-size: 9px;&quot;&gt;UPRAVLJANJE KORISNICIMA&lt;/font&gt;" style="ellipse;whiteSpace=wrap;html=1;" vertex="1" parent="1">
          <mxGeometry x="570" y="110" width="90" height="50" as="geometry" />
        </mxCell>
        <mxCell id="RndPboonW-xRMH3MhXfd-35" value="&lt;font style=&quot;font-size: 9px;&quot;&gt;ISPORUKA NARUDŽBI&lt;/font&gt;" style="ellipse;whiteSpace=wrap;html=1;" vertex="1" parent="1">
          <mxGeometry x="590" y="230" width="90" height="50" as="geometry" />
        </mxCell>
        <mxCell id="RndPboonW-xRMH3MhXfd-36" value="&lt;font style=&quot;font-size: 9px;&quot;&gt;OBAVJEŠTAVANJE O NOVIM PROIZVODIMA&lt;/font&gt;" style="ellipse;whiteSpace=wrap;html=1;" vertex="1" parent="1">
          <mxGeometry x="570" y="290" width="90" height="50" as="geometry" />
        </mxCell>
        <mxCell id="RndPboonW-xRMH3MhXfd-37" value="" style="endArrow=none;html=1;rounded=0;exitX=1;exitY=0.5;exitDx=0;exitDy=0;entryX=0;entryY=0.5;entryDx=0;entryDy=0;" edge="1" parent="1" source="RndPboonW-xRMH3MhXfd-10" target="RndPboonW-xRMH3MhXfd-35">
          <mxGeometry width="50" height="50" relative="1" as="geometry">
            <mxPoint x="380" y="180" as="sourcePoint" />
            <mxPoint x="430" y="130" as="targetPoint" />
          </mxGeometry>
        </mxCell>
        <mxCell id="RndPboonW-xRMH3MhXfd-38" value="" style="endArrow=none;html=1;rounded=0;" edge="1" parent="1" target="RndPboonW-xRMH3MhXfd-7">
          <mxGeometry width="50" height="50" relative="1" as="geometry">
            <mxPoint x="660" y="320" as="sourcePoint" />
            <mxPoint x="710" y="270" as="targetPoint" />
          </mxGeometry>
        </mxCell>
        <mxCell id="RndPboonW-xRMH3MhXfd-39" value="" style="endArrow=none;html=1;rounded=0;exitX=1;exitY=0.5;exitDx=0;exitDy=0;" edge="1" parent="1" source="RndPboonW-xRMH3MhXfd-35">
          <mxGeometry width="50" height="50" relative="1" as="geometry">
            <mxPoint x="790" y="260" as="sourcePoint" />
            <mxPoint x="740" y="270" as="targetPoint" />
          </mxGeometry>
        </mxCell>
        <mxCell id="RndPboonW-xRMH3MhXfd-40" value="&lt;font style=&quot;font-size: 9px;&quot;&gt;OBRADA PLAĆANJA&lt;/font&gt;" style="ellipse;whiteSpace=wrap;html=1;" vertex="1" parent="1">
          <mxGeometry x="610" y="370" width="90" height="50" as="geometry" />
        </mxCell>
        <mxCell id="RndPboonW-xRMH3MhXfd-41" value="&lt;font size=&quot;1&quot;&gt;PROVJERA TRANSAKCIJE&lt;/font&gt;" style="ellipse;whiteSpace=wrap;html=1;" vertex="1" parent="1">
          <mxGeometry x="560" y="420" width="90" height="50" as="geometry" />
        </mxCell>
        <mxCell id="RndPboonW-xRMH3MhXfd-42" value="&lt;font style=&quot;font-size: 9px;&quot;&gt;AUTOMATSKO PRAĆENJE ZALIHA&lt;/font&gt;" style="ellipse;whiteSpace=wrap;html=1;" vertex="1" parent="1">
          <mxGeometry x="610" y="470" width="90" height="50" as="geometry" />
        </mxCell>
        <mxCell id="RndPboonW-xRMH3MhXfd-43" value="" style="endArrow=none;html=1;rounded=0;exitX=1;exitY=0.5;exitDx=0;exitDy=0;" edge="1" parent="1" source="RndPboonW-xRMH3MhXfd-40">
          <mxGeometry width="50" height="50" relative="1" as="geometry">
            <mxPoint x="700" y="332" as="sourcePoint" />
            <mxPoint x="740" y="420" as="targetPoint" />
          </mxGeometry>
        </mxCell>
        <mxCell id="RndPboonW-xRMH3MhXfd-44" value="" style="endArrow=none;html=1;rounded=0;exitX=1;exitY=0.5;exitDx=0;exitDy=0;" edge="1" parent="1" source="RndPboonW-xRMH3MhXfd-41">
          <mxGeometry width="50" height="50" relative="1" as="geometry">
            <mxPoint x="800" y="422" as="sourcePoint" />
            <mxPoint x="740" y="430" as="targetPoint" />
          </mxGeometry>
        </mxCell>
        <mxCell id="RndPboonW-xRMH3MhXfd-45" value="" style="endArrow=none;html=1;rounded=0;exitX=1;exitY=0;exitDx=0;exitDy=0;" edge="1" parent="1" source="RndPboonW-xRMH3MhXfd-42" target="RndPboonW-xRMH3MhXfd-8">
          <mxGeometry width="50" height="50" relative="1" as="geometry">
            <mxPoint x="750" y="472" as="sourcePoint" />
            <mxPoint x="830" y="430" as="targetPoint" />
          </mxGeometry>
        </mxCell>
        <mxCell id="RndPboonW-xRMH3MhXfd-48" value="" style="endArrow=none;html=1;rounded=0;exitX=1;exitY=0.5;exitDx=0;exitDy=0;" edge="1" parent="1" source="RndPboonW-xRMH3MhXfd-34" target="RndPboonW-xRMH3MhXfd-5">
          <mxGeometry width="50" height="50" relative="1" as="geometry">
            <mxPoint x="710" y="230" as="sourcePoint" />
            <mxPoint x="770" y="245" as="targetPoint" />
          </mxGeometry>
        </mxCell>
        <mxCell id="RndPboonW-xRMH3MhXfd-49" value="" style="endArrow=none;html=1;rounded=0;exitX=1;exitY=0.5;exitDx=0;exitDy=0;" edge="1" parent="1" source="RndPboonW-xRMH3MhXfd-33">
          <mxGeometry width="50" height="50" relative="1" as="geometry">
            <mxPoint x="730" y="170" as="sourcePoint" />
            <mxPoint x="740" y="110" as="targetPoint" />
          </mxGeometry>
        </mxCell>
        <mxCell id="RndPboonW-xRMH3MhXfd-50" value="" style="endArrow=none;html=1;rounded=0;exitX=1;exitY=0.5;exitDx=0;exitDy=0;entryX=0;entryY=0.5;entryDx=0;entryDy=0;" edge="1" parent="1" source="RndPboonW-xRMH3MhXfd-20" target="RndPboonW-xRMH3MhXfd-40">
          <mxGeometry width="50" height="50" relative="1" as="geometry">
            <mxPoint x="480" y="370" as="sourcePoint" />
            <mxPoint x="540" y="385" as="targetPoint" />
          </mxGeometry>
        </mxCell>
        <mxCell id="RndPboonW-xRMH3MhXfd-51" value="" style="endArrow=none;html=1;rounded=0;exitX=1;exitY=0.5;exitDx=0;exitDy=0;entryX=1;entryY=0;entryDx=0;entryDy=0;" edge="1" parent="1" source="RndPboonW-xRMH3MhXfd-18" target="RndPboonW-xRMH3MhXfd-19">
          <mxGeometry width="50" height="50" relative="1" as="geometry">
            <mxPoint x="290" y="380" as="sourcePoint" />
            <mxPoint x="350" y="395" as="targetPoint" />
          </mxGeometry>
        </mxCell>
        <mxCell id="RndPboonW-xRMH3MhXfd-52" value="" style="endArrow=none;html=1;rounded=0;exitX=1;exitY=0.5;exitDx=0;exitDy=0;entryX=0.5;entryY=0;entryDx=0;entryDy=0;" edge="1" parent="1" source="RndPboonW-xRMH3MhXfd-19" target="RndPboonW-xRMH3MhXfd-20">
          <mxGeometry width="50" height="50" relative="1" as="geometry">
            <mxPoint x="430" y="330" as="sourcePoint" />
            <mxPoint x="490" y="345" as="targetPoint" />
          </mxGeometry>
        </mxCell>
        <mxCell id="RndPboonW-xRMH3MhXfd-53" value="" style="endArrow=none;html=1;rounded=0;exitX=0;exitY=0;exitDx=0;exitDy=0;entryX=0;entryY=1;entryDx=0;entryDy=0;" edge="1" parent="1" source="RndPboonW-xRMH3MhXfd-41" target="RndPboonW-xRMH3MhXfd-40">
          <mxGeometry width="50" height="50" relative="1" as="geometry">
            <mxPoint x="730" y="350" as="sourcePoint" />
            <mxPoint x="790" y="365" as="targetPoint" />
          </mxGeometry>
        </mxCell>
      </root>
    </mxGraphModel>
  </diagram>
</mxfile>
